#!OML:ASF H:\Male1\Project 1\Capture day 1\Session 1\Male1.ASF
:FULLY-SPECIFIED
:DEGREES
786
root 14.8024 14.7777 -3.88493 -159.901 -105.318 151.25
lowerback 11.5396 -1.74325 4.65643
upperback 9.73186 -2.39351 -0.233095
thorax 3.59084 -1.13932 -2.66613
lowerneck -4.92652 0.645406 3.81571
upperneck 7.41716 0.895321 -4.63697
head 3.33087 0.361239 -2.17171
rclavicle -3.97569e-015 -1.59028e-015
rhumerus -62.9451 17.825 -84.713
rradius 107.4
rwrist -17.2936
rhand -26.9613 17.9937
rfingers 7.12502
rthumb -0.382665 -11.9857
lclavicle -3.97569e-015 -1.59028e-015
lhumerus -18.2981 11.7226 71.0867
lradius 41.453
lwrist 7.80197
lhand -30.4185 4.59928
lfingers 7.12502
lthumb -3.72159 34.5465
rfemur -0.763731 -0.592527 39.3823
rtibia 30.3412
rfoot -36.1833 -33.5603
rtoes 0.860766
lfemur -35.3096 -5.27827 -22.1859
ltibia 39.9969
lfoot -33.9625 23.9287
ltoes 26.9721
787
root 14.7999 14.7675 -3.90979 -159.567 -106.171 150.674
lowerback 11.7647 -1.50014 4.89548
upperback 9.96616 -2.06888 0.0185851
thorax 3.75398 -0.971529 -2.56404
lowerneck -4.46109 0.303151 3.99738
upperneck 7.22067 0.422373 -4.50964
head 3.15084 0.142357 -2.17487
rclavicle -5.56597e-015 1.43125e-014
rhumerus -62.0232 18.753 -84.6387
rradius 107.128
rwrist -17.3224
rhand -26.7826 18.1461
rfingers 7.12502
rthumb -0.210118 -11.8335
lclavicle -5.56597e-015 1.43125e-014
lhumerus -19.0751 13.3768 71.0149
lradius 40.9101
lwrist 9.90792
lhand -31.6205 7.10726
lfingers 7.12502
lthumb -4.88229 37.031
rfemur -0.469738 -2.01459 39.7353
rtibia 29.7671
rfoot -35.6141 -33.1935
rtoes 0.450345
lfemur -36.0248 -8.10535 -22.9072
ltibia 39.0375
lfoot -35.7548 26.018
ltoes 23.9327
788
root 14.8014 14.7533 -3.92905 -158.634 -106.639 149.438
lowerback 12.117 -1.24457 5.11732
upperback 10.195 -1.72652 0.285299
thorax 3.84597 -0.800281 -2.43486
lowerneck -4.2953 0.122849 3.87749
upperneck 7.32167 0.177924 -4.26806
head 3.138 0.0277296 -2.08084
rclavicle 3.97569e-015 -5.64548e-014
rhumerus -60.9131 19.9305 -84.5029
rradius 106.804
rwrist -17.1376
rhand -26.5696 18.1916
rfingers 7.12502
rthumb -0.00441383 -11.7881
lclavicle 3.97569e-015 -5.64548e-014
lhumerus -20.0264 14.9712 70.79
lradius 40.269
lwrist 11.1796
lhand -31.6032 6.91831
lfingers 7.12502
lthumb -4.86563 36.8424
rfemur -0.200897 -3.13463 40.1105
rtibia 29.4414
rfoot -35.0346 -32.712
rtoes 0.0729337
lfemur -36.5421 -9.79873 -23.572
ltibia 38.2493
lfoot -35.1435 27.6956
ltoes 23.4056
789
root 14.8019 14.743 -3.94207 -158.197 -106.971 148.794
lowerback 12.3177 -1.06416 5.11821
upperback 10.4626 -1.51261 0.501338
thorax 4.05184 -0.701532 -2.22815
lowerneck -4.31802 0.0553563 3.52368
upperneck 7.46733 0.0813263 -3.82198
head 3.18057 -0.0143016 -1.87258
rclavicle -1.13307e-014 -3.18055e-014
rhumerus -59.4964 21.1227 -84.1541
rradius 106.618
rwrist -17.6885
rhand -25.669 18.2737
rfingers 7.12502
rthumb 0.865415 -11.7042
lclavicle -1.13307e-014 -3.18055e-014
lhumerus -21.101 16.5786 70.4024
lradius 39.5008
lwrist 11.208
lhand -31.3442 6.71361
lfingers 7.12502
lthumb -4.61547 36.6433
rfemur -0.0546753 -4.0948 40.2619
rtibia 29.268
rfoot -34.4983 -32.3078
rtoes -0.55963
lfemur -36.9921 -10.3031 -24.6226
ltibia 37.65
lfoot -32.5223 28.8606
ltoes 18.9564
790
root 14.8086 14.7327 -3.95226 -158.332 -107.212 148.646
lowerback 12.6843 -0.920309 5.04325
upperback 10.6997 -1.33929 0.594046
thorax 4.12904 -0.626964 -2.10098
lowerneck -4.252 0.00635318 3.38818
upperneck 7.59323 0.00626804 -3.53082
head 3.2045 -0.0444748 -1.7547
rclavicle -2.8625e-014 3.02153e-014
rhumerus -58.2914 22.1352 -84.2141
rradius 106.027
rwrist -16.7363
rhand -25.9582 18.5594
rfingers 7.12502
rthumb 0.586069 -11.4195
lclavicle -2.8625e-014 3.02153e-014
lhumerus -22.1796 17.9414 69.8232
lradius 38.454
lwrist 10.4553
lhand -30.786 6.22238
lfingers 7.12502
lthumb -4.07645 36.1631
rfemur 0.161526 -5.02456 40.22
rtibia 29.1906
rfoot -33.9451 -31.9582
rtoes -1.41716
lfemur -37.0815 -10.5555 -25.597
ltibia 37.249
lfoot -30.3251 27.4841
ltoes 18.7114
791
root 14.8142 14.7271 -3.95873 -158.39 -107.418 148.533
lowerback 12.894 -0.749089 5.07059
upperback 10.8697 -1.11937 0.625267
thorax 4.21957 -0.517698 -2.10229
lowerneck -4.0115 -0.118398 3.28744
upperneck 7.51406 -0.174258 -3.192
head 3.12117 -0.122627 -1.6273
rclavicle -3.1408e-014 1.90833e-014
rhumerus -57.2182 22.7051 -84.2819
rradius 105.757
rwrist -16.6164
rhand -25.6917 18.1032
rfingers 7.12502
rthumb 0.843557 -11.8748
lclavicle -3.1408e-014 1.90833e-014
lhumerus -23.1253 18.9626 69.2565
lradius 37.1688
lwrist 9.44637
lhand -30.504 6.24134
lfingers 7.12502
lthumb -3.80419 36.1871
rfemur 0.247626 -5.65914 40.209
rtibia 29.2196
rfoot -33.5594 -31.7478
rtoes -2.09298
lfemur -37.1619 -10.5752 -26.3885
ltibia 36.9572
lfoot -27.7263 25.3005
ltoes 16.908
792
root 14.8178 14.7233 -3.96089 -158.789 -107.575 148.835
lowerback 12.9761 -0.560492 4.97988
upperback 11.0589 -0.893419 0.61996
thorax 4.39894 -0.408193 -2.07859
lowerneck -3.97927 -0.300826 3.27224
upperneck 7.6271 -0.431813 -2.98231
head 3.14294 -0.242936 -1.56589
rclavicle 3.85642e-014 -3.97569e-015
rhumerus -56.2766 22.9847 -84.3786
rradius 105.679
rwrist -16.8344
rhand -25.357 17.8484
rfingers 7.12502
rthumb 1.16679 -12.1282
lclavicle 3.85642e-014 -3.97569e-015
lhumerus -23.9609 19.7397 68.7643
lradius 35.848
lwrist 8.40916
lhand -30.5945 6.90672
lfingers 7.12502
lthumb -3.8916 36.8509
rfemur 0.25393 -5.91282 40.151
rtibia 29.314
rfoot -33.5145 -31.8
rtoes -2.61764
lfemur -37.2009 -10.9368 -26.9148
ltibia 36.7928
lfoot -23.2852 23.5433
ltoes 6.6196
793
root 14.8256 14.7173 -3.95768 -159.53 -107.659 149.595
lowerback 13.0558 -0.437385 4.7207
upperback 11.1839 -0.760423 0.581177
thorax 4.50017 -0.355467 -1.98657
lowerneck -3.95976 -0.34022 3.32367
upperneck 7.59485 -0.49857 -2.83655
head 3.12532 -0.268844 -1.52865
rclavicle -8.34896e-015 2.38542e-014
rhumerus -55.5597 23.2317 -84.5811
rradius 105.651
rwrist -16.9048
rhand -25.2776 18.0228
rfingers 7.12502
rthumb 1.24346 -11.9534
lclavicle -8.34896e-015 2.38542e-014
lhumerus -24.9195 20.5911 68.1997
lradius 34.5851
lwrist 7.51701
lhand -30.5997 7.78588
lfingers 7.12502
lthumb -3.89657 37.73
rfemur 0.169623 -5.92116 39.9765
rtibia 29.3967
rfoot -33.6955 -31.9284
rtoes -2.6765
lfemur -37.345 -11.7511 -27.1927
ltibia 36.7463
lfoot -20.6028 21.6798
ltoes 1.65244
794
root 14.8386 14.7156 -3.94967 -159.708 -107.629 149.881
lowerback 13.071 -0.31793 4.53908
upperback 11.27 -0.62658 0.57992
thorax 4.59371 -0.299047 -1.89877
lowerneck -3.8255 -0.358482 3.35101
upperneck 7.43501 -0.525293 -2.78922
head 3.04408 -0.278865 -1.51533
rclavicle -3.85642e-014 1.82882e-014
rhumerus -54.9634 23.48 -84.7992
rradius 105.572
rwrist -16.7351
rhand -25.3379 18.0617
rfingers 7.12502
rthumb 1.18523 -11.9147
lclavicle -3.85642e-014 1.82882e-014
lhumerus -25.9508 21.5568 67.6206
lradius 33.4317
lwrist 6.72653
lhand -30.2749 8.2712
lfingers 7.12502
lthumb -3.58294 38.2208
rfemur 0.00718828 -5.738 39.8776
rtibia 29.4589
rfoot -33.8296 -31.9917
rtoes -2.60327
lfemur -37.6335 -12.7214 -27.017
ltibia 36.8937
lfoot -19.0713 20.2046
ltoes -1.45959
795
root 14.8522 14.7189 -3.93762 -159.214 -107.684 149.541
lowerback 12.9534 -0.268916 4.71181
upperback 11.3738 -0.562935 0.555383
thorax 4.7778 -0.251942 -2.02848
lowerneck -3.88993 -0.394305 3.20905
upperneck 7.37355 -0.582274 -2.55736
head 3.032 -0.302831 -1.41546
rclavicle 4.53229e-014 3.97569e-015
rhumerus -54.461 23.6703 -85.1811
rradius 105.424
rwrist -16.4324
rhand -25.8252 18.1842
rfingers 7.12502
rthumb 0.714582 -11.7944
lclavicle 4.53229e-014 3.97569e-015
lhumerus -26.8041 22.8731 66.8824
lradius 32.0721
lwrist 5.46768
lhand -29.6202 7.3015
lfingers 7.12502
lthumb -2.95064 37.2608
rfemur -0.213184 -5.57897 39.9729
rtibia 29.5094
rfoot -33.8949 -32.0184
rtoes -3.02873
lfemur -37.9538 -13.4914 -26.5208
ltibia 37.1588
lfoot -17.6758 19.8242
ltoes -4.74994
796
root 14.8714 14.7264 -3.92183 -158.717 -107.831 149.327
lowerback 12.7459 -0.306632 4.98491
upperback 11.4171 -0.60121 0.483367
thorax 4.9378 -0.245302 -2.2557
lowerneck -4.06759 -0.32468 3.00901
upperneck 7.28152 -0.506147 -2.19573
head 3.03489 -0.25796 -1.2588
rclavicle 4.33351e-014 -8.74653e-015
rhumerus -54.2044 23.7927 -85.6887
rradius 105.416
rwrist -16.3824
rhand -26.4435 18.4769
rfingers 7.12502
rthumb 0.117432 -11.5028
lclavicle 4.33351e-014 -8.74653e-015
lhumerus -27.5683 24.0658 66.2163
lradius 30.9129
lwrist 4.69795
lhand -29.3282 6.8732
lfingers 7.12502
lthumb -2.66871 36.8363
rfemur -0.549507 -5.62112 40.0236
rtibia 29.5242
rfoot -33.8434 -31.9321
rtoes -3.69756
lfemur -38.1891 -14.6634 -25.5974
ltibia 37.5447
lfoot -19.3655 17.8109
ltoes 6.4768
